<?xml version="1.0" encoding="utf-8"?>
<svg xmlns="http://www.w3.org/2000/svg" width="256" height="256">
    <title>suitcase icon</title>
    <path fill="#ff473f"
          d="m 48,64 0,160 -16,0 a 24,24 0 0 1 -24,-24 l 0,-112
       a 24,24 0 0 1 24,-24 z
       m 8,0 36,0 0,-14 a 18,18 0 0 1 18,-18 l 36,0 
       a 18,18 0 0 1 18,18 l 0,14 36,0 0,160 -144,0 z
       m 48,0 48,0 0,-14 a 6,6 0 0 0 -6,-6
       l -36,0 a 6,6 0 0 0 -6,6 z
       m 104,0 16,0 a 24,24 0 0 1 24,24 l 0,112 
       a 24,24 0 0 1 -24,24 l -16,0 z"/>
</svg>